ffmpeg started on 2016-11-26 at 20:54:26
Report written to "Output/NVENCh264/results/ffmpeg/old_town_cross_2160p50ll12000k.log"
Command line:
Tools/ffmpeg/ffmpeg -benchmark -y -i Input/y4m/old_town_cross_2160p50.y4m -c:v h264_nvenc -preset ll -b:v 12000k -an Output/NVENCh264/encoded/old_town_cross_2160p50ll12000k.mkv
ffmpeg version N-82227-gdb23fde Copyright (c) 2000-2016 the FFmpeg developers
  built with gcc 5.4.0 (Ubuntu 5.4.0-6ubuntu1~16.04.2) 20160609
  configuration: --prefix=/home/jaroslav/ffmpeg_build --pkg-config-flags=--static --extra-cflags=-I/home/jaroslav/ffmpeg_build/include --extra-ldflags=-L/home/jaroslav/ffmpeg_build/lib --bindir=/home/jaroslav/bin --enable-gpl --enable-libass --enable-libfdk-aac --enable-libfreetype --enable-libmp3lame --enable-libopus --enable-libtheora --enable-libvorbis --enable-libvpx --enable-libx264 --enable-libx265 --enable-nvenc --enable-libmfx --enable-libxvid --enable-libgsm --enable-libopencore-amrnb --enable-version3 --enable-nonfree
  libavutil      55. 35.100 / 55. 35.100
  libavcodec     57. 66.101 / 57. 66.101
  libavformat    57. 57.100 / 57. 57.100
  libavdevice    57.  2.100 / 57.  2.100
  libavfilter     6. 66.100 /  6. 66.100
  libswscale      4.  3.100 /  4.  3.100
  libswresample   2.  4.100 /  2.  4.100
  libpostproc    54.  2.100 / 54.  2.100
Input #0, yuv4mpegpipe, from 'Input/y4m/old_town_cross_2160p50.y4m':
  Duration: 00:00:10.00, start: 0.000000, bitrate: 4976642 kb/s
    Stream #0:0: Video: rawvideo (I420 / 0x30323449), yuv420p(progressive), 3840x2160, SAR 1:1 DAR 16:9, 50 fps, 50 tbr, 50 tbn, 50 tbc
[h264_nvenc @ 0x3516120] The variable bitrate rate-control requires the 'qmin' and/or 'qmax' option set.
Output #0, matroska, to 'Output/NVENCh264/encoded/old_town_cross_2160p50ll12000k.mkv':
  Metadata:
    encoder         : Lavf57.57.100
    Stream #0:0: Video: h264 (h264_nvenc) (Main) (H264 / 0x34363248), yuv420p, 3840x2160 [SAR 1:1 DAR 16:9], q=-1--1, 12000 kb/s, 50 fps, 1k tbn, 50 tbc
    Metadata:
      encoder         : Lavc57.66.101 h264_nvenc
    Side data:
      cpb: bitrate max/min/avg: 0/0/12000000 buffer size: 24000000 vbv_delay: -1
Stream mapping:
  Stream #0:0 -> #0:0 (rawvideo (native) -> h264 (h264_nvenc))
Press [q] to stop, [?] for help
frame=   19 fps=0.0 q=0.0 size=       0kB time=00:00:00.00 bitrate=N/A speed=   0x    frame=   37 fps= 36 q=36.0 size=       1kB time=00:00:00.12 bitrate=  49.5kbits/s speed=0.118x    frame=   55 fps= 36 q=33.0 size=       1kB time=00:00:00.48 bitrate=  12.5kbits/s speed=0.314x    frame=   73 fps= 36 q=33.0 size=       1kB time=00:00:00.84 bitrate=   7.1kbits/s speed=0.411x    frame=   79 fps= 31 q=31.0 size=       1kB time=00:00:00.96 bitrate=   6.2kbits/s speed=0.376x    frame=   86 fps= 28 q=32.0 size=       1kB time=00:00:01.10 bitrate=   5.4kbits/s speed=0.358x    frame=  104 fps= 29 q=33.0 size=       1kB time=00:00:01.46 bitrate=   4.1kbits/s speed=0.406x    frame=  122 fps= 30 q=32.0 size=       1kB time=00:00:01.82 bitrate=   3.3kbits/s speed=0.443x    frame=  137 fps= 28 q=32.0 size=       1kB time=00:00:02.12 bitrate=   2.8kbits/s speed=0.44x    frame=  154 fps= 29 q=31.0 size=       1kB time=00:00:02.46 bitrate=   2.4kbits/s speed=0.462x    frame=  172 fps= 29 q=31.0 size=       1kB time=00:00:02.82 bitrate=   2.1kbits/s speed=0.483x    frame=  190 fps= 30 q=32.0 size=       1kB time=00:00:03.18 bitrate=   1.9kbits/s speed=0.501x    frame=  208 fps= 30 q=32.0 size=       1kB time=00:00:03.54 bitrate=   1.7kbits/s speed=0.516x    frame=  225 fps= 31 q=32.0 size=    5151kB time=00:00:03.88 bitrate=10873.6kbits/s speed=0.527x    frame=  243 fps= 31 q=31.0 size=    5151kB time=00:00:04.24 bitrate=9950.6kbits/s speed=0.538x    frame=  261 fps= 31 q=33.0 size=    5151kB time=00:00:04.60 bitrate=9172.0kbits/s speed=0.548x    frame=  279 fps= 31 q=31.0 size=    5151kB time=00:00:04.96 bitrate=8506.4kbits/s speed=0.557x    frame=  297 fps= 32 q=32.0 size=    7123kB time=00:00:05.32 bitrate=10965.7kbits/s speed=0.564x    frame=  315 fps= 32 q=33.0 size=    7123kB time=00:00:05.68 bitrate=10270.8kbits/s speed=0.572x    frame=  333 fps= 32 q=34.0 size=    7123kB time=00:00:06.04 bitrate=9658.8kbits/s speed=0.578x    frame=  351 fps= 32 q=31.0 size=    7123kB time=00:00:06.40 bitrate=9115.6kbits/s speed=0.584x    frame=  369 fps= 32 q=33.0 size=    7123kB time=00:00:06.76 bitrate=8630.2kbits/s speed=0.589x    frame=  377 fps= 31 q=33.0 size=    7123kB time=00:00:06.92 bitrate=8430.7kbits/s speed=0.576x    frame=  395 fps= 31 q=32.0 size=    7123kB time=00:00:07.28 bitrate=8013.8kbits/s speed=0.581x    frame=  402 fps= 31 q=32.0 size=    7123kB time=00:00:07.42 bitrate=7862.6kbits/s speed=0.569x    frame=  420 fps= 31 q=30.0 size=    7123kB time=00:00:07.78 bitrate=7498.9kbits/s speed=0.573x    frame=  429 fps= 30 q=32.0 size=    7123kB time=00:00:07.96 bitrate=7329.3kbits/s speed=0.563x    frame=  447 fps= 30 q=33.0 size=    7123kB time=00:00:08.32 bitrate=7012.2kbits/s speed=0.568x    frame=  465 fps= 31 q=33.0 size=   12253kB time=00:00:08.68 bitrate=11563.3kbits/s speed=0.572x    frame=  483 fps= 31 q=33.0 size=   12253kB time=00:00:09.04 bitrate=11102.8kbits/s speed=0.576x    frame=  490 fps= 30 q=33.0 size=   12253kB time=00:00:09.18 bitrate=10933.5kbits/s speed=0.566x    frame=  500 fps= 30 q=32.0 Lsize=   14473kB time=00:00:09.98 bitrate=11878.6kbits/s speed=0.603x    
video:14468kB audio:0kB subtitle:0kB other streams:0kB global headers:0kB muxing overhead: 0.032520%
bench: utime=1.156s
bench: maxrss=1408872kB
